<svg width="19" height="19" viewBox="0 0 19 19" fill="none" xmlns="http://www.w3.org/2000/svg">
<g clip-path="url(#clip0_236_124)">
<path d="M10.9407 4.05498C11.779 4.58058 12.3668 5.46999 12.4738 6.50241C12.8157 6.66214 13.1951 6.754 13.5974 6.754C15.066 6.754 16.2564 5.56367 16.2564 4.09526C16.2564 2.62662 15.066 1.43628 13.5974 1.43628C12.1428 1.43673 10.9628 2.6058 10.9407 4.05498ZM9.19872 9.49919C10.6674 9.49919 11.8577 8.30862 11.8577 6.84021C11.8577 5.3718 10.6671 4.18146 9.19872 4.18146C7.73031 4.18146 6.53929 5.37203 6.53929 6.84044C6.53929 8.30885 7.73031 9.49919 9.19872 9.49919ZM10.3266 9.68042H8.07037C6.19311 9.68042 4.66588 11.2079 4.66588 13.0851V15.8443L4.67289 15.8876L4.86295 15.9471C6.65445 16.5068 8.21088 16.6935 9.49195 16.6935C11.9941 16.6935 13.4444 15.9801 13.5338 15.9346L13.7114 15.8448H13.7304V13.0851C13.7311 11.2079 12.2039 9.68042 10.3266 9.68042ZM14.7257 6.93546H12.4869C12.4627 7.83122 12.0803 8.63782 11.4755 9.21795C13.1442 9.71413 14.3651 11.2615 14.3651 13.0892V13.9395C16.5756 13.8585 17.8494 13.232 17.9334 13.1899L18.111 13.0998H18.13V10.3397C18.13 8.4627 16.6028 6.93546 14.7257 6.93546ZM4.53307 6.75446C5.05323 6.75446 5.5372 6.60264 5.94717 6.34403C6.0775 5.49398 6.53318 4.75118 7.18412 4.24526C7.18684 4.19549 7.19159 4.14616 7.19159 4.09593C7.19159 2.6273 6.00102 1.43696 4.53307 1.43696C3.0642 1.43696 1.87409 2.6273 1.87409 4.09593C1.87409 5.56389 3.0642 6.75446 4.53307 6.75446ZM6.92099 9.21795C6.31914 8.64076 5.93812 7.83846 5.91029 6.94813C5.82726 6.94202 5.74513 6.93546 5.66051 6.93546H3.40449C1.52724 6.93546 0 8.4627 0 10.3397V13.0994L0.00701398 13.1419L0.19707 13.2019C1.63426 13.6506 2.91691 13.8574 4.031 13.9225V13.0892C4.03145 11.2615 5.25188 9.71458 6.92099 9.21795Z" fill="#00A77F"/>
</g>
<defs>
<clipPath id="clip0_236_124">
<rect width="18.13" height="18.13" fill="white"/>
</clipPath>
</defs>
</svg>
